<svg width="29" height="30" viewBox="0 0 29 30" fill="none" xmlns="http://www.w3.org/2000/svg">
<path d="M14.6314 7.62894C10.5932 7.62894 7.37517 10.91 7.37517 14.8852C7.37517 18.9235 10.5932 22.1415 14.6314 22.1415C18.6066 22.1415 21.8877 18.9235 21.8877 14.8852C21.8877 10.91 18.6066 7.62894 14.6314 7.62894ZM14.6314 19.6175C12.0444 19.6175 9.89909 17.5353 9.89909 14.8852C9.89909 12.2982 11.9813 10.216 14.6314 10.216C17.2184 10.216 19.3007 12.2982 19.3007 14.8852C19.3007 17.5353 17.2184 19.6175 14.6314 19.6175ZM23.8437 7.37655C23.8437 6.43008 23.0866 5.6729 22.1401 5.6729C21.1936 5.6729 20.4364 6.43008 20.4364 7.37655C20.4364 8.32301 21.1936 9.08019 22.1401 9.08019C23.0866 9.08019 23.8437 8.32301 23.8437 7.37655ZM28.6392 9.08019C28.513 6.80866 28.0082 4.78953 26.3676 3.14898C24.7271 1.50844 22.708 1.00366 20.4364 0.877459C18.1018 0.751264 11.0979 0.751264 8.76333 0.877459C6.4918 1.00366 4.53576 1.50844 2.83212 3.14898C1.19157 4.78953 0.686791 6.80866 0.560595 9.08019C0.4344 11.4148 0.4344 18.4187 0.560595 20.7533C0.686791 23.0248 1.19157 24.9809 2.83212 26.6845C4.53576 28.3251 6.4918 28.8298 8.76333 28.956C11.0979 29.0822 18.1018 29.0822 20.4364 28.956C22.708 28.8298 24.7271 28.3251 26.3676 26.6845C28.0082 24.9809 28.513 23.0248 28.6392 20.7533C28.7654 18.4187 28.7654 11.4148 28.6392 9.08019ZM25.6105 23.2141C25.1688 24.4761 24.1592 25.4226 22.9604 25.9273C21.0674 26.6845 16.6506 26.4952 14.6314 26.4952C12.5492 26.4952 8.13235 26.6845 6.30251 25.9273C5.04055 25.4226 4.09408 24.4761 3.5893 23.2141C2.83212 21.3843 3.02141 16.9674 3.02141 14.8852C3.02141 12.8661 2.83212 8.44921 3.5893 6.55627C4.09408 5.35741 5.04055 4.41094 6.30251 3.90616C8.13235 3.14898 12.5492 3.33828 14.6314 3.33828C16.6506 3.33828 21.0674 3.14898 22.9604 3.90616C24.1592 4.34785 25.1057 5.35741 25.6105 6.55627C26.3676 8.44921 26.1784 12.8661 26.1784 14.8852C26.1784 16.9674 26.3676 21.3843 25.6105 23.2141Z" fill="black"/>
</svg>
