<svg width="156" height="37" viewBox="0 0 156 37" fill="none" xmlns="http://www.w3.org/2000/svg">
<circle cx="58.0899" cy="18.5" r="18.5" fill="#F1C554"/>
<path d="M63.9151 18.3339C63.9151 20.3414 63.406 21.92 62.388 23.0695C61.3757 24.2191 59.9658 24.7939 58.1585 24.7939C56.3112 24.7939 54.8842 24.2306 53.8776 23.1039C52.8767 21.9714 52.3763 20.3757 52.3763 18.3168C52.3763 16.275 52.8796 14.6936 53.8862 13.5726C54.8928 12.4459 56.3226 11.8825 58.1757 11.8825C59.9773 11.8825 61.3842 12.4544 62.3966 13.5983C63.4089 14.7422 63.9151 16.3207 63.9151 18.3339ZM53.9205 18.3339C53.9205 20.0326 54.2808 21.3223 55.0015 22.2031C55.7278 23.0781 56.7802 23.5157 58.1585 23.5157C59.5483 23.5157 60.5978 23.0781 61.307 22.2031C62.0162 21.328 62.3708 20.0383 62.3708 18.3339C62.3708 16.6467 62.0162 15.3684 61.307 14.4991C60.6036 13.624 59.5598 13.1865 58.1757 13.1865C56.7859 13.1865 55.7278 13.6269 55.0015 14.5077C54.2808 15.3827 53.9205 16.6582 53.9205 18.3339Z" fill="#333333"/>
<circle cx="97.6801" cy="18.5" r="18.5" fill="#FF4B4B" fill-opacity="0.78"/>
<path d="M97.901 18.0508H102.165V24.1505C101.501 24.3621 100.826 24.5223 100.14 24.6309C99.4538 24.7396 98.6588 24.7939 97.7552 24.7939C95.8564 24.7939 94.3779 24.2306 93.3198 23.1039C92.2617 21.9714 91.7327 20.3872 91.7327 18.3511C91.7327 17.0471 91.9929 15.9061 92.5134 14.9281C93.0396 13.9443 93.7945 13.1951 94.7783 12.6804C95.762 12.1599 96.9144 11.8997 98.2356 11.8997C99.5739 11.8997 100.821 12.1456 101.976 12.6375L101.41 13.9243C100.277 13.4439 99.1879 13.2037 98.1412 13.2037C96.6142 13.2037 95.4217 13.6584 94.5638 14.5677C93.7059 15.4771 93.2769 16.7382 93.2769 18.3511C93.2769 20.044 93.6887 21.328 94.5123 22.2031C95.3416 23.0781 96.557 23.5157 98.1584 23.5157C99.0277 23.5157 99.8771 23.4156 100.706 23.2154V19.3548H97.901V18.0508Z" fill="#333333"/>
<circle cx="137.27" cy="18.5" r="18.5" fill="#F1C554"/>
<path d="M142.628 18.3339C142.628 20.3414 142.119 21.92 141.101 23.0695C140.089 24.2191 138.679 24.7939 136.871 24.7939C135.024 24.7939 133.597 24.2306 132.59 23.1039C131.59 21.9714 131.089 20.3757 131.089 18.3168C131.089 16.275 131.592 14.6936 132.599 13.5726C133.606 12.4459 135.035 11.8825 136.889 11.8825C138.69 11.8825 140.097 12.4544 141.109 13.5983C142.122 14.7422 142.628 16.3207 142.628 18.3339ZM132.633 18.3339C132.633 20.0326 132.994 21.3223 133.714 22.2031C134.441 23.0781 135.493 23.5157 136.871 23.5157C138.261 23.5157 139.311 23.0781 140.02 22.2031C140.729 21.328 141.084 20.0383 141.084 18.3339C141.084 16.6467 140.729 15.3684 140.02 14.4991C139.316 13.624 138.273 13.1865 136.889 13.1865C135.499 13.1865 134.441 13.6269 133.714 14.5077C132.994 15.3827 132.633 16.6582 132.633 18.3339Z" fill="#333333"/>
<circle cx="18.5" cy="18.5" r="18.5" fill="#FF4B4B" fill-opacity="0.78"/>
<path d="M15.0774 23.2168V10.6742H16.5359V21.8956H22.0693V23.2168H15.0774Z" fill="#333333"/>
</svg>
