<svg width="33" height="28" viewBox="0 0 33 28" fill="none" xmlns="http://www.w3.org/2000/svg">
<path d="M29.1533 7.32301C30.4153 6.37655 31.551 5.24078 32.4344 3.91573C31.2986 4.42051 29.9736 4.7991 28.6485 4.92529C30.0367 4.10502 31.0462 2.84306 31.551 1.26561C30.2891 2.02279 28.8378 2.59067 27.3866 2.90616C26.1246 1.5811 24.4209 0.823928 22.528 0.823928C18.8683 0.823928 15.9027 3.78953 15.9027 7.44921C15.9027 7.95399 15.9658 8.45878 16.092 8.96356C10.6025 8.64807 5.68086 5.99796 2.39977 2.02279C1.83189 2.96926 1.5164 4.10502 1.5164 5.36698C1.5164 7.6385 2.65216 9.65764 4.482 10.8565C3.40934 10.7934 2.33667 10.541 1.4533 10.0362V10.0993C1.4533 13.3173 3.72483 15.9674 6.75353 16.5984C6.24875 16.7246 5.61777 16.8508 5.04989 16.8508C4.6082 16.8508 4.22961 16.7877 3.78793 16.7246C4.6082 19.3747 7.06902 21.2677 9.97152 21.3308C7.7 23.0975 4.86059 24.1702 1.76879 24.1702C1.20091 24.1702 0.696129 24.1071 0.191345 24.044C3.09385 25.9369 6.56424 27.0096 10.3501 27.0096C22.528 27.0096 29.1533 16.977 29.1533 8.20639C29.1533 7.8909 29.1533 7.6385 29.1533 7.32301Z" fill="black"/>
</svg>
